<?xml version="1.0" encoding="UTF-8"?>
<svg id="Layer_1" data-name="Layer 1" xmlns="http://www.w3.org/2000/svg" viewBox="0 0 595.28 595.28">
  <defs>
    <style>
      .cls-1 {
        fill: #fff;
      }

      .cls-2 {
        stroke: #00a651;
      }

      .cls-2, .cls-3, .cls-4, .cls-5 {
        fill: none;
        stroke-miterlimit: 10;
        stroke-width: 10px;
      }

      .cls-3 {
        stroke: #00aeef;
      }

      .cls-4 {
        stroke: #fff200;
      }

      .cls-5 {
        stroke: #ed1c24;
      }

      .cls-6 {
        fill: #231f20;
      }
    </style>
  </defs>
  <rect class="cls-1" x="107.5" y="107.5" width="380.27" height="380.27" rx="100.24" ry="100.24"/>
  <path class="cls-3" d="m295.87,107.5h94.29c53.91,0,97.62,43.71,97.62,97.62v93.45"/>
  <path class="cls-2" d="m107.5,297.32v-92.2c0-53.91,43.71-97.62,97.62-97.62h90.74"/>
  <path class="cls-4" d="m295.87,487.77h-90.74c-53.91,0-97.62-43.71-97.62-97.62v-92.83"/>
  <path class="cls-5" d="m487.77,298.57v91.59c0,53.91-43.71,97.62-97.62,97.62h-94.29"/>
  <g>
    <path class="cls-6" d="m216.07,270.21c-4.51,0-7.64.56-9.38,1.69-1.74,1.13-2.61,3.07-2.61,5.81,0,1.42.16,2.51.48,3.27.32.76.89,1.41,1.73,1.95,2.01,1.32,6.94,3.07,14.79,5.23,8.24,2.06,14.33,4.98,18.25,8.76,3.88,4.07,5.81,9.69,5.81,16.85,0,6.18-1.26,11.37-3.79,15.56-2.53,4.19-6.05,7.36-10.56,9.49-4.51,2.13-9.69,3.2-15.53,3.2-6.92,0-14.5-.81-22.74-2.43l-6.92-1.4,1.99-16.12c12.46,1.67,21.41,2.5,26.86,2.5,4.32,0,7.33-.76,9.05-2.28,1.72-1.52,2.58-4.1,2.58-7.73,0-1.37-.16-2.44-.48-3.2-.32-.76-.87-1.44-1.66-2.02-1.72-1.27-6.3-2.87-13.76-4.78-8.05-1.81-14.23-4.68-18.54-8.61-4.37-4.42-6.55-10.45-6.55-18.1,0-5.45,1.24-10.03,3.72-13.76,2.48-3.73,5.95-6.55,10.41-8.46,4.46-1.91,9.69-2.87,15.67-2.87s13.49.74,21.93,2.21l6.77,1.03-1.55,16.34c-12.95-1.42-21.61-2.13-25.98-2.13Z"/>
    <path class="cls-6" d="m310.41,340.71h-51.14v-86.54h18.99v69.02h32.16v17.51Z"/>
    <path class="cls-6" d="m319.6,271.83v-19.43h18.69v19.43h-18.69Zm0,68.88v-64.76h18.69v64.76h-18.69Z"/>
    <path class="cls-6" d="m384.21,274.63c4.27,0,8.09.65,11.48,1.95,3.38,1.3,6.16,3.27,8.32,5.92,2.11,2.7,3.64,6.21,4.6,10.52.96,4.32,1.43,9.42,1.43,15.31s-.55,11.03-1.66,15.42c-1.1,4.39-2.93,7.91-5.48,10.56-2.55,2.65-5.9,4.6-10.04,5.85-4.15,1.25-8.99,1.88-14.53,1.88-3.78,0-9.71-.37-17.81-1.1l-6.62-.66v-88.82h18.54v25.17c.88-.39,2.48-.82,4.78-1.29,2.31-.47,4.64-.7,6.99-.7Zm-5.89,50.04c2.89,0,5.13-.24,6.7-.74,1.57-.49,2.77-1.32,3.61-2.5,1.62-1.96,2.43-6.38,2.43-13.25,0-4.42-.25-7.79-.74-10.12-.49-2.33-1.35-3.92-2.58-4.78-1.23-.86-2.9-1.29-5-1.29-3.53,0-7.02.54-10.45,1.62h.15v30.83c2.45.15,4.42.22,5.89.22Z"/>
  </g>
</svg>